<svg width="15" height="16" viewBox="0 0 15 16" fill="none" xmlns="http://www.w3.org/2000/svg">
<path d="M11.8698 0.21102C11.5885 -0.07034 11.1489 -0.07034 10.8675 0.21102L4.7655 6.3306C4.6424 6.45369 4.57206 6.62954 4.55448 6.80539L4.46655 9.81243C4.46655 10.0059 4.53689 10.1993 4.67757 10.34C4.81825 10.4807 4.9941 10.551 5.16995 10.551H5.18754L8.19457 10.4631C8.37042 10.4631 8.54627 10.3927 8.66937 10.2521L14.7889 4.13247C15.0703 3.85111 15.0703 3.41149 14.7889 3.13013L11.8698 0.21102ZM7.87804 9.05627L5.89094 9.10903L5.94369 7.12192L9.67171 3.3939L11.6061 5.32825L7.87804 9.05627ZM12.5908 4.32591L10.6741 2.40914L11.3775 1.70574L13.2942 3.62251L12.5908 4.32591Z" fill="#495057"/>
<path d="M5.31067 3.49939C5.69754 3.49939 6.01407 3.18286 6.01407 2.79599C6.01407 2.40912 5.69754 2.09259 5.31067 2.09259H0.7034C0.31653 2.09259 0 2.40912 0 2.79599V14.4021C0 14.789 0.31653 15.1055 0.7034 15.1055H12.3095C12.6964 15.1055 13.0129 14.789 13.0129 14.4021V9.53104C13.0129 9.14417 12.6964 8.82764 12.3095 8.82764C11.9226 8.82764 11.6061 9.14417 11.6061 9.53104V13.6987H1.4068V3.49939H5.31067Z" fill="#495057"/>
</svg>
